<svg width="20" height="20" viewBox="0 0 20 20" fill="none" xmlns="http://www.w3.org/2000/svg">
<path fill-rule="evenodd" clip-rule="evenodd" d="M6.66663 3.33332C6.20639 3.33332 5.83329 3.70642 5.83329 4.16666V15.8333C5.83329 16.2936 6.20639 16.6667 6.66663 16.6667H13.3333C13.7935 16.6667 14.1666 16.2936 14.1666 15.8333V4.16666C14.1666 3.70642 13.7935 3.33332 13.3333 3.33332H11.6666C11.6666 3.79356 11.2935 4.16666 10.8333 4.16666H9.16663C8.70639 4.16666 8.33329 3.79356 8.33329 3.33332H6.66663ZM4.16663 4.16666C4.16663 2.78594 5.28591 1.66666 6.66663 1.66666H13.3333C14.714 1.66666 15.8333 2.78594 15.8333 4.16666V15.8333C15.8333 17.214 14.714 18.3333 13.3333 18.3333H6.66663C5.28591 18.3333 4.16663 17.214 4.16663 15.8333V4.16666ZM9.99996 13.3333C10.4602 13.3333 10.8333 13.7064 10.8333 14.1667V14.175C10.8333 14.6352 10.4602 15.0083 9.99996 15.0083C9.53972 15.0083 9.16663 14.6352 9.16663 14.175V14.1667C9.16663 13.7064 9.53972 13.3333 9.99996 13.3333Z" fill="#E3000B"/>
<path fill-rule="evenodd" clip-rule="evenodd" d="M6.66663 3.33332C6.20639 3.33332 5.83329 3.70642 5.83329 4.16666V15.8333C5.83329 16.2936 6.20639 16.6667 6.66663 16.6667H13.3333C13.7935 16.6667 14.1666 16.2936 14.1666 15.8333V4.16666C14.1666 3.70642 13.7935 3.33332 13.3333 3.33332H11.6666C11.6666 3.79356 11.2935 4.16666 10.8333 4.16666H9.16663C8.70639 4.16666 8.33329 3.79356 8.33329 3.33332H6.66663ZM4.16663 4.16666C4.16663 2.78594 5.28591 1.66666 6.66663 1.66666H13.3333C14.714 1.66666 15.8333 2.78594 15.8333 4.16666V15.8333C15.8333 17.214 14.714 18.3333 13.3333 18.3333H6.66663C5.28591 18.3333 4.16663 17.214 4.16663 15.8333V4.16666ZM9.99996 13.3333C10.4602 13.3333 10.8333 13.7064 10.8333 14.1667V14.175C10.8333 14.6352 10.4602 15.0083 9.99996 15.0083C9.53972 15.0083 9.16663 14.6352 9.16663 14.175V14.1667C9.16663 13.7064 9.53972 13.3333 9.99996 13.3333Z" fill="#E3000B"/>
</svg>
